<svg xmlns="http://www.w3.org/2000/svg" viewBox="0 0 1280 360" fill="none" stroke="none" stroke-linecap="square" stroke-miterlimit="10"><clipPath id="A"><path d="M0 0h1280v360H0V0z"/></clipPath><g clip-path="url(#A)"><g fill-rule="evenodd"><path fill="#f90" d="M0 0h1280v360H0z"/><path fill-opacity="0" d="M36.858 238.908h289.07v85.67H36.858z" fill="#000"/></g><path fill="#000" d="M82.61 298.823q-.766 0-1.328-.547-.547-.562-.547-1.328v-33.734q0-.828.547-1.344.563-.53 1.328-.53 1.156 0 1.688.953l16.172 32.156h-1.64l15.89-32.156q.578-.953 1.688-.953.766 0 1.28.53.53.516.53 1.344v33.734q0 .766-.53 1.328-.516.547-1.28.547-.828 0-1.375-.547-.547-.562-.547-1.328v-28.89l.813.047-14.156 28.938q-.53.922-1.64.922-1.187 0-1.72-1.156l-14.266-28.516.97-.234v28.89q0 .766-.562 1.328-.547.547-1.312.547zm56.166.28q-3.406 0-6.11-1.406-2.687-1.422-4.25-4.156-1.547-2.734-1.547-6.672v-12.484q0-.766.516-1.28.53-.53 1.297-.53.828 0 1.344.53.53.516.53 1.28v12.484q0 2.984 1.125 4.906 1.14 1.906 3.078 2.875 1.953.953 4.39.953 2.36 0 4.25-.906 1.89-.922 3-2.5 1.11-1.578 1.11-3.594h2.64q-.156 3.016-1.672 5.39-1.5 2.375-4.047 3.75-2.547 1.36-5.656 1.36zm10.547-.28q-.812 0-1.312-.5-.5-.516-.5-1.375v-22.562q0-.812.5-1.312.5-.5 1.313-.5.828 0 1.344.5.53.5.53 1.313v22.563q0 .86-.53 1.375-.516.5-1.344.5zm16.184 0q-1.922 0-3.437-1.047-1.5-1.062-2.344-2.937-.844-1.875-.844-4.312V263.15q0-.812.5-1.312.516-.5 1.328-.5.813 0 1.313.5.516.5.516 1.313v27.375q0 2.063.828 3.36.844 1.297 2.14 1.297h1.203q.72 0 1.14.5.438.5.438 1.313 0 .813-.61 1.328-.594.5-1.547.5h-.625zm18.145 0q-2.547 0-4.547-1.203-1.984-1.203-3.14-3.28-1.14-2.094-1.14-4.78v-23.47q0-.812.5-1.344.5-.53 1.313-.53.828 0 1.344.53.53.53.53 1.344v23.47q0 2.453 1.438 4.016 1.453 1.547 3.703 1.547h1.297q.766 0 1.234.53.484.53.484 1.344 0 .813-.578 1.328-.562.5-1.437.5h-1zm-11.953-22.078q-.72 0-1.203-.453-.484-.453-.484-1.125 0-.734.484-1.187.484-.453 1.203-.453h12.234q.72 0 1.203.453.484.453.484 1.188 0 .672-.484 1.125-.484.453-1.203.453h-12.234zm23.61 22.078q-.86 0-1.36-.5-.5-.516-.5-1.375v-22.516q0-.86.5-1.36.5-.5 1.36-.5.828 0 1.328.5.5.5.5 1.36v22.516q0 .86-.5 1.375-.5.5-1.328.5zm.156-31.25q-1.062 0-1.828-.766-.766-.766-.766-1.875 0-1.203.78-1.89.797-.703 1.86-.703 1 0 1.797.703.797.688.797 1.89 0 1.11-.78 1.875-.766.766-1.86.766zm21.356 31.25q-2.547 0-4.547-1.203-1.984-1.203-3.14-3.28-1.14-2.094-1.14-4.78v-23.47q0-.812.5-1.344.5-.53 1.313-.53.828 0 1.344.53.53.53.53 1.344v23.47q0 2.453 1.438 4.016 1.453 1.547 3.703 1.547h1.297q.766 0 1.234.53.484.53.484 1.344 0 .813-.578 1.328-.562.5-1.437.5h-1zm-11.953-22.078q-.72 0-1.203-.453-.484-.453-.484-1.125 0-.734.484-1.187.484-.453 1.203-.453H217.1q.72 0 1.203.453.484.453.484 1.188 0 .672-.484 1.125-.484.453-1.203.453h-12.234zm23.61 22.078q-.86 0-1.36-.5-.5-.516-.5-1.375v-22.516q0-.86.5-1.36.5-.5 1.36-.5.828 0 1.328.5.5.5.5 1.36v22.516q0 .86-.5 1.375-.5.5-1.328.5zm.156-31.25q-1.062 0-1.828-.766-.766-.766-.766-1.875 0-1.203.78-1.89.797-.703 1.86-.703 1 0 1.797.703.797.688.797 1.89 0 1.11-.78 1.875-.766.766-1.86.766zm22.98 31.484q-3.875 0-6.875-1.703-3-1.703-4.72-4.72-1.703-3.03-1.703-6.922 0-3.937 1.61-6.937 1.61-3 4.438-4.72 2.844-1.734 6.53-1.734 3.656 0 6.36 1.656 2.72 1.656 4.203 4.594 1.484 2.922 1.484 6.672 0 .766-.484 1.22-.47.453-1.234.453h-20.406v-3.062h20.78l-2.062 1.484q.047-2.78-1.016-4.984-1.047-2.22-3-3.47-1.937-1.25-4.625-1.25-2.734 0-4.797 1.297-2.062 1.297-3.187 3.578-1.125 2.28-1.125 5.203 0 2.938 1.266 5.203 1.266 2.25 3.47 3.547 2.22 1.28 5.094 1.28 1.734 0 3.484-.594 1.75-.594 2.813-1.516.53-.422 1.203-.437.672-.03 1.14.344.625.578.64 1.25.03.672-.547 1.156-1.578 1.344-4.03 2.234-2.438.875-4.703.875zm19.113-16.406q.14-2.984 1.547-5.328 1.422-2.36 3.703-3.703 2.28-1.344 5.063-1.344 2.22 0 3.406.625 1.203.625.922 1.828-.203.72-.656.97-.453.234-1.11.188-.64-.047-1.453-.11-2.687-.234-4.78.563-2.078.78-3.312 2.422-1.22 1.625-1.22 3.89h-2.11zm.28 16.172q-.86 0-1.344-.47-.484-.484-.484-1.36v-22.61q0-.86.484-1.328.484-.484 1.344-.484.875 0 1.344.484.484.47.484 1.328v22.61q0 .875-.484 1.36-.47.47-1.344.47z"/></g></svg>